<?xml version="1.0" encoding="UTF-8" standalone="no"?>
<!-- Generator: Adobe Illustrator 14.0.0, SVG Export Plug-In . SVG Version: 6.00 Build 43363)  -->

<svg
   xmlns:dc="http://purl.org/dc/elements/1.1/"
   xmlns:cc="http://creativecommons.org/ns#"
   xmlns:rdf="http://www.w3.org/1999/02/22-rdf-syntax-ns#"
   xmlns:svg="http://www.w3.org/2000/svg"
   xmlns="http://www.w3.org/2000/svg"
   xmlns:sodipodi="http://sodipodi.sourceforge.net/DTD/sodipodi-0.dtd"
   xmlns:inkscape="http://www.inkscape.org/namespaces/inkscape"
   version="1.1"
   id="Ebene_2_Kopie_Kopie_Kopie_Kopie"
   x="0px"
   y="0px"
   width="595.28px"
   height="841.89px"
   viewBox="0 0 595.28 841.89"
   enable-background="new 0 0 595.28 841.89"
   xml:space="preserve"
   sodipodi:version="0.32"
   inkscape:version="0.48.0 r9654"
   sodipodi:docname="invertika.svg"
   inkscape:output_extension="org.inkscape.output.svg.inkscape"><metadata
   id="metadata36"><rdf:RDF><cc:Work
       rdf:about=""><dc:format>image/svg+xml</dc:format><dc:type
         rdf:resource="http://purl.org/dc/dcmitype/StillImage" /></cc:Work></rdf:RDF></metadata><defs
   id="defs34"><inkscape:perspective
   sodipodi:type="inkscape:persp3d"
   inkscape:vp_x="0 : 420.94501 : 1"
   inkscape:vp_y="0 : 1000 : 0"
   inkscape:vp_z="595.28003 : 420.94501 : 1"
   inkscape:persp3d-origin="297.64001 : 280.63 : 1"
   id="perspective38" />
	
	

		
		
	
			
			
			
			
			
			
			
			
			
			
		</defs><sodipodi:namedview
   inkscape:window-height="1025"
   inkscape:window-width="1920"
   inkscape:pageshadow="2"
   inkscape:pageopacity="0.0"
   guidetolerance="10.0"
   gridtolerance="10.0"
   objecttolerance="10.0"
   borderopacity="1.0"
   bordercolor="#666666"
   pagecolor="#ffffff"
   id="base"
   showgrid="false"
   inkscape:zoom="3.1042851"
   inkscape:cx="412.14289"
   inkscape:cy="409.94981"
   inkscape:window-x="-3"
   inkscape:window-y="-3"
   inkscape:current-layer="Ebene_2_Kopie_Kopie_Kopie_Kopie"
   showguides="true"
   inkscape:guide-bbox="true"
   inkscape:window-maximized="1"><sodipodi:guide
     orientation="0,1"
     position="354.99316,277.03641"
     id="guide3017" /><sodipodi:guide
     orientation="0,1"
     position="338.56426,558.26057"
     id="guide3019" /><sodipodi:guide
     orientation="1,0"
     position="152.37002,339.20853"
     id="guide3021" /><sodipodi:guide
     orientation="1,0"
     position="431.98351,373.03274"
     id="guide3023" /></sodipodi:namedview>
<circle
   sodipodi:ry="28.346001"
   sodipodi:rx="28.346001"
   sodipodi:cy="312.63199"
   sodipodi:cx="293.33301"
   id="circle11"
   r="28.346001"
   cy="312.63199"
   cx="293.33301" /><circle
   sodipodi:ry="28.347"
   sodipodi:rx="28.347"
   sodipodi:cy="392.159"
   sodipodi:cx="184.304"
   id="circle13"
   r="28.347"
   cy="392.159"
   cx="184.304" /><circle
   sodipodi:ry="28.347"
   sodipodi:rx="28.347"
   sodipodi:cy="520.284"
   sodipodi:cx="225.75999"
   id="circle15"
   r="28.347"
   cy="520.284"
   cx="225.75999" /><circle
   sodipodi:ry="28.347"
   sodipodi:rx="28.347"
   sodipodi:cy="520.33002"
   sodipodi:cx="360.64801"
   id="circle17"
   r="28.347"
   cy="520.33002"
   cx="360.64801" /><circle
   sodipodi:ry="28.347"
   sodipodi:rx="28.347"
   sodipodi:cy="392.07199"
   sodipodi:cx="402.35999"
   id="circle19"
   r="28.347"
   cy="392.07199"
   cx="402.35999" /><path
   id="path21"
   d="m 293.333,371.139 c 10.257,0 19.869,2.738 28.17,7.503 l 47.959,-66.01 -33.701,0.002 c -0.002,23.48 -19.039,42.518 -42.521,42.52 -23.481,0 -42.518,-19.037 -42.518,-42.521 l -32.028,0 47.519,65.406 c 8.056,-4.398 17.295,-6.9 27.12,-6.9 z"
   inkscape:connector-curvature="0" /><path
   id="path23"
   d="m 350.025,427.833 c 0,3.852 -0.388,7.613 -1.12,11.248 l 76.842,24.967 -10.316,-31.744 c -22.33,7.254 -46.32,-4.967 -53.576,-27.301 -7.256,-22.331 4.967,-46.319 27.299,-53.577 l -9.383,-28.869 -46.947,64.62 c 10.604,10.301 17.201,24.704 17.201,40.656 z"
   inkscape:connector-curvature="0" /><path
   id="path25"
   d="m 344.381,452.515 c -8.37,17.279 -25.253,29.666 -45.199,31.711 l 10e-4,80.488 27.055,-19.658 c -13.803,-18.998 -9.588,-45.592 9.41,-59.393 18.996,-13.803 45.586,-9.592 59.389,9.406 l 24.818,-18.031 -75.474,-24.523 z"
   inkscape:connector-curvature="0" /><path
   id="path27"
   d="m 241.893,453.663 -76.143,24.742 25.693,18.666 c 13.803,-18.998 40.394,-23.209 59.391,-9.404 19.001,13.801 23.211,40.391 9.407,59.389 l 24.769,17.994 0,-79.139 c -19.182,-2.822 -35.23,-15.254 -43.117,-32.248 z"
   inkscape:connector-curvature="0" /><path
   id="path29"
   d="m 236.64,427.833 c 0,-16.388 6.962,-31.144 18.081,-41.495 l -47.498,-65.372 -9.897,30.461 c 22.335,7.256 34.556,31.244 27.298,53.576 -7.255,22.333 -31.241,34.556 -53.574,27.3 l -9.983,30.721 76.529,-24.867 c -0.617,-3.349 -0.956,-6.797 -0.956,-10.324 z"
   inkscape:connector-curvature="0" /><circle
   cx="293.33301"
   cy="427.83301"
   r="42.52"
   id="circle31"
   sodipodi:cx="293.33301"
   sodipodi:cy="427.83301"
   sodipodi:rx="42.52"
   sodipodi:ry="42.52" />
</svg>