<?xml version="1.0" encoding="utf-8"?>
<!-- Generator: Adobe Illustrator 14.0.0, SVG Export Plug-In . SVG Version: 6.00 Build 43363)  -->
<!DOCTYPE svg PUBLIC "-//W3C//DTD SVG 1.1//EN" "http://www.w3.org/Graphics/SVG/1.1/DTD/svg11.dtd">
<svg version="1.1" id="Ebene_2_Kopie_Kopie_Kopie_Kopie"
	 xmlns="http://www.w3.org/2000/svg" xmlns:xlink="http://www.w3.org/1999/xlink" x="0px" y="0px" width="595.28px"
	 height="841.89px" viewBox="0 0 595.28 841.89" enable-background="new 0 0 595.28 841.89" xml:space="preserve">
<g>
	<circle fill="none" stroke="#000000" stroke-width="8.5039" cx="293.332" cy="427.499" r="155.905"/>
	<g>
		<g>
			<circle cx="293.333" cy="312.632" r="28.346"/>
			<circle cx="184.304" cy="392.159" r="28.347"/>
			<circle cx="225.76" cy="520.284" r="28.347"/>
			<circle cx="360.648" cy="520.33" r="28.347"/>
			<circle cx="402.36" cy="392.072" r="28.347"/>
			<path d="M293.333,371.139c10.257,0,19.869,2.738,28.17,7.503l47.959-66.01l-33.701,0.002
				c-0.002,23.48-19.039,42.518-42.521,42.52c-23.481,0-42.518-19.037-42.518-42.521h-32.028l47.519,65.406
				C274.269,373.641,283.508,371.139,293.333,371.139z"/>
			<path d="M350.025,427.833c0,3.852-0.388,7.613-1.12,11.248l76.842,24.967l-10.316-31.744c-22.33,7.254-46.32-4.967-53.576-27.301
				c-7.256-22.331,4.967-46.319,27.299-53.577l-9.383-28.869l-46.947,64.62C343.428,397.478,350.025,411.881,350.025,427.833z"/>
			<path d="M344.381,452.515c-8.37,17.279-25.253,29.666-45.199,31.711l0.001,80.488l27.055-19.658
				c-13.803-18.998-9.588-45.592,9.41-59.393c18.996-13.803,45.586-9.592,59.389,9.406l24.818-18.031L344.381,452.515z"/>
			<path d="M241.893,451.663l-76.143,24.742l25.693,18.666c13.803-18.998,40.394-23.209,59.391-9.404
				c19.001,13.801,23.211,40.391,9.407,59.389l24.769,17.994v-79.139C265.828,481.089,249.78,468.657,241.893,451.663z"/>
			<path d="M236.64,427.833c0-16.388,6.962-31.144,18.081-41.495l-47.498-65.372l-9.897,30.461
				c22.335,7.256,34.556,31.244,27.298,53.576c-7.255,22.333-31.241,34.556-53.574,27.3l-9.983,30.721l76.529-24.867
				C236.979,434.808,236.64,431.36,236.64,427.833z"/>
		</g>
		<circle cx="293.333" cy="427.833" r="42.52"/>
	</g>
</g>
</svg>
