<?xml version="1.0" encoding="UTF-8" standalone="no"?>
<!-- Generator: Adobe Illustrator 14.0.0, SVG Export Plug-In . SVG Version: 6.00 Build 43363)  -->
<svg
   xmlns:dc="http://purl.org/dc/elements/1.1/"
   xmlns:cc="http://creativecommons.org/ns#"
   xmlns:rdf="http://www.w3.org/1999/02/22-rdf-syntax-ns#"
   xmlns:svg="http://www.w3.org/2000/svg"
   xmlns="http://www.w3.org/2000/svg"
   xmlns:sodipodi="http://sodipodi.sourceforge.net/DTD/sodipodi-0.dtd"
   xmlns:inkscape="http://www.inkscape.org/namespaces/inkscape"
   version="1.1"
   id="Ebene_2_Kopie_Kopie_Kopie_Kopie"
   x="0px"
   y="0px"
   width="595.28px"
   height="841.89px"
   viewBox="0 0 595.28 841.89"
   enable-background="new 0 0 595.28 841.89"
   xml:space="preserve"
   sodipodi:version="0.32"
   inkscape:version="0.46"
   sodipodi:docname="invertika.svg"
   inkscape:output_extension="org.inkscape.output.svg.inkscape"><metadata
   id="metadata36"><rdf:RDF><cc:Work
       rdf:about=""><dc:format>image/svg+xml</dc:format><dc:type
         rdf:resource="http://purl.org/dc/dcmitype/StillImage" /></cc:Work></rdf:RDF></metadata><defs
   id="defs34"><inkscape:perspective
   sodipodi:type="inkscape:persp3d"
   inkscape:vp_x="0 : 420.94501 : 1"
   inkscape:vp_y="0 : 1000 : 0"
   inkscape:vp_z="595.28003 : 420.94501 : 1"
   inkscape:persp3d-origin="297.64001 : 280.63 : 1"
   id="perspective38" />
	
	
</defs><sodipodi:namedview
   inkscape:window-height="553"
   inkscape:window-width="1024"
   inkscape:pageshadow="2"
   inkscape:pageopacity="0.0"
   guidetolerance="10.0"
   gridtolerance="10.0"
   objecttolerance="10.0"
   borderopacity="1.0"
   bordercolor="#666666"
   pagecolor="#ffffff"
   id="base"
   showgrid="false"
   inkscape:zoom="0.54876527"
   inkscape:cx="297.64001"
   inkscape:cy="420.94501"
   inkscape:window-x="-4"
   inkscape:window-y="-4"
   inkscape:current-layer="Ebene_2_Kopie_Kopie_Kopie_Kopie" />
<g
   id="g7">
		<g
   id="g9">
			<circle
   sodipodi:ry="28.346001"
   sodipodi:rx="28.346001"
   sodipodi:cy="312.63199"
   sodipodi:cx="293.33301"
   id="circle11"
   r="28.346001"
   cy="312.63199"
   cx="293.33301" />
			<circle
   sodipodi:ry="28.347"
   sodipodi:rx="28.347"
   sodipodi:cy="392.159"
   sodipodi:cx="184.304"
   id="circle13"
   r="28.347"
   cy="392.159"
   cx="184.304" />
			<circle
   sodipodi:ry="28.347"
   sodipodi:rx="28.347"
   sodipodi:cy="520.284"
   sodipodi:cx="225.75999"
   id="circle15"
   r="28.347"
   cy="520.284"
   cx="225.75999" />
			<circle
   sodipodi:ry="28.347"
   sodipodi:rx="28.347"
   sodipodi:cy="520.33002"
   sodipodi:cx="360.64801"
   id="circle17"
   r="28.347"
   cy="520.33002"
   cx="360.64801" />
			<circle
   sodipodi:ry="28.347"
   sodipodi:rx="28.347"
   sodipodi:cy="392.07199"
   sodipodi:cx="402.35999"
   id="circle19"
   r="28.347"
   cy="392.07199"
   cx="402.35999" />
			<path
   id="path21"
   d="M 293.333,371.139 C 303.59,371.139 313.202,373.877 321.503,378.642 L 369.462,312.632 L 335.761,312.634 C 335.759,336.114 316.722,355.152 293.24,355.154 C 269.759,355.154 250.722,336.117 250.722,312.633 L 218.694,312.633 L 266.213,378.039 C 274.269,373.641 283.508,371.139 293.333,371.139 z" />
			<path
   id="path23"
   d="M 350.025,427.833 C 350.025,431.685 349.637,435.446 348.905,439.081 L 425.747,464.048 L 415.431,432.304 C 393.101,439.558 369.111,427.337 361.855,405.003 C 354.599,382.672 366.822,358.684 389.154,351.426 L 379.771,322.557 L 332.824,387.177 C 343.428,397.478 350.025,411.881 350.025,427.833 z" />
			<path
   id="path25"
   d="M 344.381,452.515 C 336.011,469.794 319.128,482.181 299.182,484.226 L 299.183,564.714 L 326.238,545.056 C 312.435,526.058 316.65,499.464 335.648,485.663 C 354.644,471.86 381.234,476.071 395.037,495.069 L 419.855,477.038 L 344.381,452.515 z" />
			<path
   id="path27"
   d="M 241.893,451.663 L 165.75,476.405 L 191.443,495.071 C 205.246,476.073 231.837,471.862 250.834,485.667 C 269.835,499.468 274.045,526.058 260.241,545.056 L 285.01,563.05 L 285.01,483.911 C 265.828,481.089 249.78,468.657 241.893,451.663 z" />
			<path
   id="path29"
   d="M 236.64,427.833 C 236.64,411.445 243.602,396.689 254.721,386.338 L 207.223,320.966 L 197.326,351.427 C 219.661,358.683 231.882,382.671 224.624,405.003 C 217.369,427.336 193.383,439.559 171.05,432.303 L 161.067,463.024 L 237.596,438.157 C 236.979,434.808 236.64,431.36 236.64,427.833 z" />
		</g>
		<circle
   sodipodi:ry="42.52"
   sodipodi:rx="42.52"
   sodipodi:cy="427.83301"
   sodipodi:cx="293.33301"
   id="circle31"
   r="42.52"
   cy="427.83301"
   cx="293.33301" />
	</g>
</svg>